<?xml version="1.0" encoding="utf-8" standalone="no"?>
<!DOCTYPE svg PUBLIC "-//W3C//DTD SVG 1.1//EN"
  "http://www.w3.org/Graphics/SVG/1.1/DTD/svg11.dtd">
<svg xmlns:xlink="http://www.w3.org/1999/xlink" width="453.6pt" height="249.48pt" viewBox="0 0 453.6 249.48" xmlns="http://www.w3.org/2000/svg" version="1.1">
 <metadata>
  <rdf:RDF xmlns:dc="http://purl.org/dc/elements/1.1/" xmlns:cc="http://creativecommons.org/ns#" xmlns:rdf="http://www.w3.org/1999/02/22-rdf-syntax-ns#">
   <cc:Work>
    <dc:type rdf:resource="http://purl.org/dc/dcmitype/StillImage"/>
    <dc:date>2026-09-11T08:18:41.857148</dc:date>
    <dc:format>image/svg+xml</dc:format>
    <dc:creator>
     <cc:Agent>
      <dc:title>Matplotlib v3.11.1, https://matplotlib.org/</dc:title>
     </cc:Agent>
    </dc:creator>
   </cc:Work>
  </rdf:RDF>
 </metadata>
 <defs>
  <style type="text/css">*{stroke-linejoin: round; stroke-linecap: butt}</style>
 </defs>
 <g id="figure_1">
  <g id="patch_1">
   <path d="M 0 249.48 
L 453.6 249.48 
L 453.6 0 
L 0 0 
z
" style="fill: #ffffff"/>
  </g>
  <g id="axes_1">
   <g id="patch_2">
    <path d="M 30.738053 221.902455 
L 450.59976 221.902455 
L 450.59976 12.824459 
L 30.738053 12.824459 
z
" style="fill: #ffffff"/>
   </g>
   <g id="matplotlib.axis_1">
    <g id="xtick_1">
     <g id="line2d_1">
      <defs>
       <path id="m394d4a6480" d="M 0 0 
L 0 3 
" style="stroke: #000000; stroke-width: 0.6"/>
      </defs>
      <g>
       <use xlink:href="#m394d4a6480" x="49.822676" y="221.902455" style="stroke: #000000; stroke-width: 0.6"/>
      </g>
     </g>
     <g id="text_1">
      <text style="font-size: 7px; font-family: 'Arial', 'Helvetica', 'DejaVu Sans', sans-serif; text-anchor: middle" x="49.822676" y="233.498647" transform="rotate(-0 49.822676 233.498647)">0.0</text>
     </g>
    </g>
    <g id="xtick_2">
     <g id="line2d_2">
      <g>
       <use xlink:href="#m394d4a6480" x="126.161168" y="221.902455" style="stroke: #000000; stroke-width: 0.6"/>
      </g>
     </g>
     <g id="text_2">
      <text style="font-size: 7px; font-family: 'Arial', 'Helvetica', 'DejaVu Sans', sans-serif; text-anchor: middle" x="126.161168" y="233.498647" transform="rotate(-0 126.161168 233.498647)">0.2</text>
     </g>
    </g>
    <g id="xtick_3">
     <g id="line2d_3">
      <g>
       <use xlink:href="#m394d4a6480" x="202.49966" y="221.902455" style="stroke: #000000; stroke-width: 0.6"/>
      </g>
     </g>
     <g id="text_3">
      <text style="font-size: 7px; font-family: 'Arial', 'Helvetica', 'DejaVu Sans', sans-serif; text-anchor: middle" x="202.49966" y="233.498647" transform="rotate(-0 202.49966 233.498647)">0.4</text>
     </g>
    </g>
    <g id="xtick_4">
     <g id="line2d_4">
      <g>
       <use xlink:href="#m394d4a6480" x="278.838152" y="221.902455" style="stroke: #000000; stroke-width: 0.6"/>
      </g>
     </g>
     <g id="text_4">
      <text style="font-size: 7px; font-family: 'Arial', 'Helvetica', 'DejaVu Sans', sans-serif; text-anchor: middle" x="278.838152" y="233.498647" transform="rotate(-0 278.838152 233.498647)">0.6</text>
     </g>
    </g>
    <g id="xtick_5">
     <g id="line2d_5">
      <g>
       <use xlink:href="#m394d4a6480" x="355.176645" y="221.902455" style="stroke: #000000; stroke-width: 0.6"/>
      </g>
     </g>
     <g id="text_5">
      <text style="font-size: 7px; font-family: 'Arial', 'Helvetica', 'DejaVu Sans', sans-serif; text-anchor: middle" x="355.176645" y="233.498647" transform="rotate(-0 355.176645 233.498647)">0.8</text>
     </g>
    </g>
    <g id="xtick_6">
     <g id="line2d_6">
      <g>
       <use xlink:href="#m394d4a6480" x="431.515137" y="221.902455" style="stroke: #000000; stroke-width: 0.6"/>
      </g>
     </g>
     <g id="text_6">
      <text style="font-size: 7px; font-family: 'Arial', 'Helvetica', 'DejaVu Sans', sans-serif; text-anchor: middle" x="431.515137" y="233.498647" transform="rotate(-0 431.515137 233.498647)">1.0</text>
     </g>
    </g>
    <g id="text_7">
     <text style="font-size: 8px; font-family: 'Arial', 'Helvetica', 'DejaVu Sans', sans-serif; text-anchor: middle" x="240.668906" y="244.79601" transform="rotate(-0 240.668906 244.79601)">Normalized infrared intensity</text>
    </g>
   </g>
   <g id="matplotlib.axis_2">
    <g id="ytick_1">
     <g id="line2d_7">
      <defs>
       <path id="mefd38049cd" d="M 0 0 
L -3 0 
" style="stroke: #000000; stroke-width: 0.6"/>
      </defs>
      <g>
       <use xlink:href="#mefd38049cd" x="30.738053" y="212.399635" style="stroke: #000000; stroke-width: 0.6"/>
      </g>
     </g>
     <g id="text_8">
      <text style="font-size: 7px; font-family: 'Arial', 'Helvetica', 'DejaVu Sans', sans-serif; text-anchor: end" x="24.238053" y="214.947731" transform="rotate(-0 24.238053 214.947731)">0.0</text>
     </g>
    </g>
    <g id="ytick_2">
     <g id="line2d_8">
      <g>
       <use xlink:href="#mefd38049cd" x="30.738053" y="174.385309" style="stroke: #000000; stroke-width: 0.6"/>
      </g>
     </g>
     <g id="text_9">
      <text style="font-size: 7px; font-family: 'Arial', 'Helvetica', 'DejaVu Sans', sans-serif; text-anchor: end" x="24.238053" y="176.933405" transform="rotate(-0 24.238053 176.933405)">0.2</text>
     </g>
    </g>
    <g id="ytick_3">
     <g id="line2d_9">
      <g>
       <use xlink:href="#mefd38049cd" x="30.738053" y="136.370983" style="stroke: #000000; stroke-width: 0.6"/>
      </g>
     </g>
     <g id="text_10">
      <text style="font-size: 7px; font-family: 'Arial', 'Helvetica', 'DejaVu Sans', sans-serif; text-anchor: end" x="24.238053" y="138.919078" transform="rotate(-0 24.238053 138.919078)">0.4</text>
     </g>
    </g>
    <g id="ytick_4">
     <g id="line2d_10">
      <g>
       <use xlink:href="#mefd38049cd" x="30.738053" y="98.356656" style="stroke: #000000; stroke-width: 0.6"/>
      </g>
     </g>
     <g id="text_11">
      <text style="font-size: 7px; font-family: 'Arial', 'Helvetica', 'DejaVu Sans', sans-serif; text-anchor: end" x="24.238053" y="100.904752" transform="rotate(-0 24.238053 100.904752)">0.6</text>
     </g>
    </g>
    <g id="ytick_5">
     <g id="line2d_11">
      <g>
       <use xlink:href="#mefd38049cd" x="30.738053" y="60.34233" style="stroke: #000000; stroke-width: 0.6"/>
      </g>
     </g>
     <g id="text_12">
      <text style="font-size: 7px; font-family: 'Arial', 'Helvetica', 'DejaVu Sans', sans-serif; text-anchor: end" x="24.238053" y="62.890426" transform="rotate(-0 24.238053 62.890426)">0.8</text>
     </g>
    </g>
    <g id="ytick_6">
     <g id="line2d_12">
      <g>
       <use xlink:href="#mefd38049cd" x="30.738053" y="22.328004" style="stroke: #000000; stroke-width: 0.6"/>
      </g>
     </g>
     <g id="text_13">
      <text style="font-size: 7px; font-family: 'Arial', 'Helvetica', 'DejaVu Sans', sans-serif; text-anchor: end" x="24.238053" y="24.8761" transform="rotate(-0 24.238053 24.8761)">1.0</text>
     </g>
    </g>
    <g id="text_14">
     <text style="font-size: 8px; font-family: 'Arial', 'Helvetica', 'DejaVu Sans', sans-serif; text-anchor: middle" x="8.824459" y="117.363457" transform="rotate(-90 8.824459 117.363457)">Empirical cumulative fraction</text>
    </g>
   </g>
   <g id="line2d_13">
    <path d="M 49.822676 212.39891 
L 49.822676 200.356293 
L 51.319509 200.244633 
L 51.319509 194.027195 
L 52.816342 193.915534 
L 52.816342 190.829655 
L 54.313175 190.717995 
L 54.313175 188.725514 
L 55.810009 188.613854 
L 55.810009 187.104267 
L 57.306842 186.992607 
L 57.306842 185.672262 
L 58.803675 185.560602 
L 58.803675 184.456327 
L 60.300508 184.344667 
L 60.300508 183.145408 
L 61.797342 183.033748 
L 61.797342 181.730805 
L 63.294175 181.619145 
L 63.294175 180.292274 
L 64.791008 180.180614 
L 64.791008 178.768186 
L 66.287841 178.656526 
L 66.287841 177.283252 
L 67.784674 177.171591 
L 67.784674 176.042664 
L 69.281507 175.931004 
L 69.281507 175.16606 
L 70.77834 175.0544 
L 70.77834 174.183596 
L 72.275173 174.071935 
L 72.275173 173.137326 
L 73.772008 173.025666 
L 73.772008 171.988097 
L 75.268841 171.876436 
L 75.268841 170.554642 
L 76.765674 170.442981 
L 76.765674 169.179917 
L 78.262507 169.068257 
L 78.262507 168.024887 
L 79.75934 167.913227 
L 79.75934 167.107679 
L 81.256173 166.996019 
L 81.256173 166.119415 
L 82.753006 166.007754 
L 82.753006 165.068794 
L 84.24984 164.957134 
L 84.24984 163.885487 
L 85.746673 163.773827 
L 85.746673 162.6507 
L 87.243506 162.53904 
L 87.243506 161.470293 
L 88.740339 161.358633 
L 88.740339 160.492904 
L 90.237172 160.381244 
L 90.237172 159.711284 
L 91.734005 159.599623 
L 91.734005 158.886884 
L 93.230838 158.775224 
L 93.230838 158.039282 
L 94.727671 157.927622 
L 94.727671 157.009689 
L 96.224504 156.898029 
L 96.224504 155.903238 
L 97.72134 155.791578 
L 97.72134 154.920049 
L 99.218173 154.808389 
L 99.218173 153.947011 
L 100.715006 153.835351 
L 100.715006 153.10666 
L 102.211839 152.995 
L 102.211839 152.371443 
L 103.708673 152.259783 
L 103.708673 151.606499 
L 105.205506 151.494839 
L 105.205506 150.693641 
L 106.702339 150.581981 
L 106.702339 149.69305 
L 108.199172 149.58139 
L 108.199172 148.753365 
L 109.696005 148.641705 
L 109.696005 147.920265 
L 111.192838 147.808605 
L 111.192838 147.171997 
L 112.689671 147.060337 
L 112.689671 146.541915 
L 114.186504 146.430255 
L 114.186504 145.88283 
L 115.683337 145.77117 
L 115.683337 145.077282 
L 117.18017 144.965622 
L 117.18017 144.290586 
L 118.677004 144.178925 
L 118.677004 143.475612 
L 120.173837 143.363952 
L 120.173837 142.634535 
L 121.67067 142.522875 
L 121.67067 141.846389 
L 123.167503 141.734729 
L 123.167503 141.063318 
L 124.664336 140.951658 
L 124.664336 140.135959 
L 126.161169 140.024299 
L 126.161169 139.062862 
L 127.658002 138.951202 
L 127.658002 137.94046 
L 129.154835 137.8288 
L 129.154835 136.759328 
L 130.651668 136.647668 
L 130.651668 135.557894 
L 132.148501 135.446234 
L 132.148501 134.379662 
L 133.645334 134.268002 
L 133.645334 133.19273 
L 135.142168 133.081069 
L 135.142168 131.885436 
L 136.639001 131.773776 
L 136.639001 130.371499 
L 138.135834 130.259839 
L 138.135834 128.719074 
L 139.632667 128.607414 
L 139.632667 126.946288 
L 141.1295 126.834628 
L 141.1295 125.151026 
L 142.626333 125.039365 
L 142.626333 123.293407 
L 144.123166 123.181747 
L 144.123166 121.446665 
L 145.620005 121.335005 
L 145.620005 119.309896 
L 147.116838 119.198236 
L 147.116838 116.869325 
L 148.613671 116.757665 
L 148.613671 114.133652 
L 150.110504 114.021992 
L 150.110504 111.042697 
L 151.607337 110.931036 
L 151.607337 108.093129 
L 153.10417 107.981469 
L 153.10417 105.476367 
L 154.601003 105.364707 
L 154.601003 103.276517 
L 156.097837 103.164857 
L 156.097837 101.020113 
L 157.59467 100.908453 
L 157.59467 98.981228 
L 159.091503 98.869568 
L 159.091503 96.616789 
L 160.588336 96.505129 
L 160.588336 94.58588 
L 162.085169 94.474219 
L 162.085169 93.535259 
L 163.582002 93.423599 
L 163.582002 92.794242 
L 165.078835 92.682582 
L 165.078835 92.127182 
L 166.575668 92.015522 
L 166.575668 91.482598 
L 168.072501 91.370938 
L 168.072501 90.831489 
L 169.569334 90.719829 
L 169.569334 90.140502 
L 171.066167 90.028841 
L 171.066167 89.529271 
L 172.563001 89.417611 
L 172.563001 88.889763 
L 174.059834 88.778103 
L 174.059834 88.289409 
L 175.556667 88.177749 
L 175.556667 87.732558 
L 177.0535 87.620898 
L 177.0535 87.177883 
L 178.550333 87.066223 
L 178.550333 86.557952 
L 180.047166 86.446292 
L 180.047166 85.932945 
L 181.543999 85.821285 
L 181.543999 85.308664 
L 183.040832 85.197003 
L 183.040832 84.71846 
L 184.537665 84.6068 
L 184.537665 84.136957 
L 186.034498 84.025297 
L 186.034498 83.568506 
L 187.531331 83.456846 
L 187.531331 83.01093 
L 189.028165 82.89927 
L 189.028165 82.435228 
L 190.524998 82.323568 
L 190.524998 81.79137 
L 192.021831 81.67971 
L 192.021831 81.226544 
L 193.518664 81.114883 
L 193.518664 80.679119 
L 195.015497 80.567459 
L 195.015497 80.102692 
L 196.51233 79.991032 
L 196.51233 79.567593 
L 198.009163 79.455933 
L 198.009163 79.025969 
L 199.505996 78.914309 
L 199.505996 78.490871 
L 201.002829 78.37921 
L 201.002829 77.995651 
L 202.499662 77.883991 
L 202.499662 77.517107 
L 203.996495 77.405447 
L 203.996495 77.069742 
L 205.493329 76.958082 
L 205.493329 76.648478 
L 206.990162 76.536818 
L 206.990162 76.21924 
L 208.486995 76.107579 
L 208.486995 75.790001 
L 209.983828 75.678341 
L 209.983828 75.397015 
L 211.480661 75.285355 
L 211.480661 74.985178 
L 212.977494 74.873518 
L 212.977494 74.574065 
L 214.474327 74.462405 
L 214.474327 74.157878 
L 215.97116 74.046218 
L 215.97116 73.722838 
L 217.467993 73.611178 
L 217.467993 73.279823 
L 218.964826 73.168163 
L 218.964826 72.833183 
L 220.461659 72.721522 
L 220.461659 72.340138 
L 221.958493 72.228478 
L 221.958493 71.815915 
L 223.455326 71.704255 
L 223.455326 71.280092 
L 224.952159 71.168432 
L 224.952159 70.669586 
L 226.448992 70.557926 
L 226.448992 70.032254 
L 227.945825 69.920594 
L 227.945825 69.368093 
L 229.442658 69.256433 
L 229.442658 68.729311 
L 230.939491 68.61765 
L 230.939491 68.049199 
L 232.436324 67.937539 
L 232.436324 67.276279 
L 233.933157 67.164619 
L 233.933157 66.415626 
L 235.42999 66.303966 
L 235.42999 65.531046 
L 236.926824 65.419386 
L 236.926824 64.761026 
L 238.423657 64.649366 
L 238.423657 64.057712 
L 239.92049 63.946052 
L 239.92049 63.382676 
L 241.417334 63.271016 
L 241.417334 62.666311 
L 242.914167 62.554651 
L 242.914167 61.890491 
L 244.411 61.77883 
L 244.411 61.073342 
L 245.907833 60.961681 
L 245.907833 60.093778 
L 247.404667 59.982118 
L 247.404667 59.274453 
L 248.9015 59.162793 
L 248.9015 58.630595 
L 250.398333 58.518935 
L 250.398333 58.056343 
L 251.895166 57.944683 
L 251.895166 57.41321 
L 253.391999 57.30155 
L 253.391999 56.720047 
L 254.888832 56.608387 
L 254.888832 55.988456 
L 256.385665 55.876795 
L 256.385665 55.253239 
L 257.882498 55.141579 
L 257.882498 54.597054 
L 259.379331 54.485394 
L 259.379331 53.987999 
L 260.876164 53.876339 
L 260.876164 53.464502 
L 262.372997 53.352842 
L 262.372997 52.874298 
L 263.869831 52.762638 
L 263.869831 52.18186 
L 265.366664 52.0702 
L 265.366664 51.483622 
L 266.863497 51.371962 
L 266.863497 50.768707 
L 268.36033 50.657047 
L 268.36033 50.200981 
L 269.857163 50.089321 
L 269.857163 49.628904 
L 271.353996 49.517244 
L 271.353996 49.052477 
L 272.850829 48.940817 
L 272.850829 48.471699 
L 274.347662 48.360039 
L 274.347662 47.812614 
L 275.844495 47.700954 
L 275.844495 47.173106 
L 277.341328 47.061446 
L 277.341328 46.581453 
L 278.838161 46.469793 
L 278.838161 46.082608 
L 280.334995 45.970947 
L 280.334995 45.615665 
L 281.831828 45.504005 
L 281.831828 45.218329 
L 283.328661 45.106669 
L 283.328661 44.800691 
L 284.825494 44.689031 
L 284.825494 44.412781 
L 286.322327 44.301121 
L 286.322327 43.937138 
L 287.81916 43.825478 
L 287.81916 43.482522 
L 289.315993 43.370862 
L 289.315993 42.988027 
L 290.812826 42.876367 
L 290.812826 42.46598 
L 292.309659 42.35432 
L 292.309659 41.975835 
L 293.806492 41.864175 
L 293.806492 41.430586 
L 295.303326 41.318926 
L 295.303326 40.759175 
L 296.800159 40.647515 
L 296.800159 39.915198 
L 298.296992 39.803538 
L 298.296992 39.032068 
L 299.793825 38.920408 
L 299.793825 38.284526 
L 301.290658 38.172865 
L 301.290658 37.602964 
L 302.787491 37.491304 
L 302.787491 37.075841 
L 304.284324 36.964181 
L 304.284324 36.595848 
L 305.781157 36.484187 
L 305.781157 36.155008 
L 307.27799 36.043347 
L 307.27799 35.696766 
L 308.774823 35.585106 
L 308.774823 35.195746 
L 310.271656 35.084085 
L 310.271656 34.770132 
L 311.76849 34.658472 
L 311.76849 34.446753 
L 313.265323 34.335093 
L 313.265323 34.163977 
L 314.762156 34.052317 
L 314.762156 33.879026 
L 316.258989 33.767366 
L 316.258989 33.559997 
L 317.755822 33.448337 
L 317.755822 33.283747 
L 319.252655 33.172087 
L 319.252655 32.953842 
L 320.749488 32.842182 
L 320.749488 32.696444 
L 322.246321 32.584784 
L 322.246321 32.402792 
L 323.743154 32.291132 
L 323.743154 32.143944 
L 325.239987 32.032284 
L 325.239987 31.903947 
L 326.73682 31.792287 
L 326.73682 31.671201 
L 328.233654 31.559541 
L 328.233654 31.43628 
L 329.730487 31.32462 
L 329.730487 31.231811 
L 331.22732 31.120151 
L 331.22732 30.943235 
L 332.724153 30.831575 
L 332.724153 30.622756 
L 334.220986 30.511096 
L 334.220986 30.343606 
L 335.717819 30.231946 
L 335.717819 30.069531 
L 337.214652 29.957871 
L 337.214652 29.751227 
L 338.711485 29.639567 
L 338.711485 29.440174 
L 340.208318 29.328514 
L 340.208318 29.108094 
L 341.705151 28.996434 
L 341.705151 28.714383 
L 343.201984 28.602723 
L 343.201984 28.358376 
L 344.698818 28.246716 
L 344.698818 28.042247 
L 346.195651 27.930587 
L 346.195651 27.74062 
L 347.692484 27.62896 
L 347.692484 27.424491 
L 349.189317 27.312831 
L 349.189317 27.114163 
L 350.68615 27.002503 
L 350.68615 26.820511 
L 352.182983 26.708851 
L 352.182983 26.575439 
L 353.679816 26.463779 
L 353.679816 26.354294 
L 355.176649 26.242634 
L 355.176649 26.159251 
L 356.673482 26.047591 
L 356.673482 25.967109 
L 358.170315 25.855449 
L 358.170315 25.777142 
L 359.667148 25.665482 
L 359.667148 25.5966 
L 361.163982 25.48494 
L 361.163982 25.42766 
L 362.660815 25.316 
L 362.660815 25.274671 
L 364.157648 25.163011 
L 364.157648 25.134008 
L 365.654481 25.022348 
L 365.654481 24.997696 
L 367.151314 24.886036 
L 367.151314 24.872985 
L 368.648147 24.761325 
L 368.648147 24.744648 
L 370.14498 24.632988 
L 370.14498 24.591659 
L 371.641813 24.479999 
L 371.641813 24.445921 
L 374.635479 24.333536 
L 374.635479 24.26973 
L 377.629146 24.157345 
L 377.629146 24.126167 
L 380.622812 24.013782 
L 380.622812 23.971003 
L 383.616478 23.858618 
L 383.616478 23.833241 
L 386.610144 23.720855 
L 386.610144 23.696203 
L 389.60381 23.583818 
L 389.60381 23.547565 
L 392.597477 23.435179 
L 392.597477 23.357597 
L 395.591143 23.245212 
L 395.591143 23.195908 
L 400.081642 23.082797 
L 400.081642 23.052345 
L 404.572141 22.939234 
L 404.572141 22.922558 
L 412.056307 22.807998 
L 412.056307 22.784795 
L 416.546806 22.671685 
L 416.546806 22.660084 
L 419.540472 22.547699 
L 419.540472 22.483893 
L 424.030971 22.370783 
L 424.030971 22.360632 
L 431.515137 22.328004 
L 431.515137 22.328004 
" clip-path="url(#p1e35f37a1c)" style="fill: none; stroke: #0072b2; stroke-width: 1.1; stroke-linecap: square"/>
   </g>
   <g id="patch_3">
    <path d="M 30.738053 221.902455 
L 30.738053 12.824459 
" style="fill: none; stroke: #000000; stroke-width: 0.7; stroke-linejoin: miter; stroke-linecap: square"/>
   </g>
   <g id="patch_4">
    <path d="M 30.738053 221.902455 
L 450.59976 221.902455 
" style="fill: none; stroke: #000000; stroke-width: 0.7; stroke-linejoin: miter; stroke-linecap: square"/>
   </g>
   <g id="text_15">
    <text style="font-size: 7.5px; font-family: 'Arial', 'Helvetica', 'DejaVu Sans', sans-serif; text-anchor: end; fill: #6b7280" x="442.202526" y="211.448555" transform="rotate(-0 442.202526 211.448555)">32 images; full pixels sampled every 8</text>
   </g>
   <g id="text_16">
    <text style="font-size: 8px; font-family: 'Arial', 'Helvetica', 'DejaVu Sans', sans-serif; text-anchor: start" x="30.738053" y="8.824459" transform="rotate(-0 30.738053 8.824459)">NUDT intensity ECDF</text>
   </g>
  </g>
 </g>
 <defs>
  <clipPath id="p1e35f37a1c">
   <rect x="30.738053" y="12.824459" width="419.861707" height="209.077997"/>
  </clipPath>
 </defs>
</svg>
