<?xml version="1.0" encoding="utf-8" standalone="no"?>
<!DOCTYPE svg PUBLIC "-//W3C//DTD SVG 1.1//EN"
  "http://www.w3.org/Graphics/SVG/1.1/DTD/svg11.dtd">
<svg xmlns:xlink="http://www.w3.org/1999/xlink" width="453.6pt" height="244.944pt" viewBox="0 0 453.6 244.944" xmlns="http://www.w3.org/2000/svg" version="1.1">
 <metadata>
  <rdf:RDF xmlns:dc="http://purl.org/dc/elements/1.1/" xmlns:cc="http://creativecommons.org/ns#" xmlns:rdf="http://www.w3.org/1999/02/22-rdf-syntax-ns#">
   <cc:Work>
    <dc:type rdf:resource="http://purl.org/dc/dcmitype/StillImage"/>
    <dc:date>2026-09-15T12:31:14.190561</dc:date>
    <dc:format>image/svg+xml</dc:format>
    <dc:creator>
     <cc:Agent>
      <dc:title>Matplotlib v3.11.1, https://matplotlib.org/</dc:title>
     </cc:Agent>
    </dc:creator>
   </cc:Work>
  </rdf:RDF>
 </metadata>
 <defs>
  <style type="text/css">*{stroke-linejoin: round; stroke-linecap: butt}</style>
 </defs>
 <g id="figure_1">
  <g id="patch_1">
   <path d="M 0 244.944
L 453.6 244.944
L 453.6 0
L 0 0
z
" style="fill: #ffffff"/>
  </g>
  <g id="axes_1">
   <g id="patch_2">
    <path d="M 34.630865 217.366455
L 439.491571 217.366455
L 439.491571 12.824459
L 34.630865 12.824459
z
" style="fill: #ffffff"/>
   </g>
   <g id="PathCollection_1">
    <defs>
     <path id="mea16c1b6c2" d="M 0 2.828427
C 0.750108 2.828427 1.469594 2.530406 2 2
C 2.530406 1.469594 2.828427 0.750108 2.828427 0
C 2.828427 -0.750108 2.530406 -1.469594 2 -2
C 1.469594 -2.530406 0.750108 -2.828427 0 -2.828427
C -0.750108 -2.828427 -1.469594 -2.530406 -2 -2
C -2.530406 -1.469594 -2.828427 -0.750108 -2.828427 0
C -2.828427 0.750108 -2.530406 1.469594 -2 2
C -1.469594 2.530406 -0.750108 2.828427 0 2.828427
z
" style="stroke: #0072b2; stroke-width: 0.6"/>
    </defs>
    <g clip-path="url(#p5e1b2c639b)">
     <use xlink:href="#mea16c1b6c2" x="53.033624" y="22.496547" style="fill: #0072b2; stroke: #0072b2; stroke-width: 0.6"/>
    </g>
   </g>
   <g id="PathCollection_2">
    <defs>
     <path id="m85958f7467" d="M 0 2.828427
C 0.750108 2.828427 1.469594 2.530406 2 2
C 2.530406 1.469594 2.828427 0.750108 2.828427 0
C 2.828427 -0.750108 2.530406 -1.469594 2 -2
C 1.469594 -2.530406 0.750108 -2.828427 0 -2.828427
C -0.750108 -2.828427 -1.469594 -2.530406 -2 -2
C -2.530406 -1.469594 -2.828427 -0.750108 -2.828427 0
C -2.828427 0.750108 -2.530406 1.469594 -2 2
C -1.469594 2.530406 -0.750108 2.828427 0 2.828427
z
" style="stroke: #6b7280; stroke-width: 0.6"/>
    </defs>
    <g clip-path="url(#p5e1b2c639b)">
     <use xlink:href="#m85958f7467" x="421.088812" y="208.069092" style="fill: #6b7280; stroke: #6b7280; stroke-width: 0.6"/>
    </g>
   </g>
   <g id="PathCollection_3">
    <defs>
     <path id="mf16314eec7" d="M 0 2.828427
C 0.750108 2.828427 1.469594 2.530406 2 2
C 2.530406 1.469594 2.828427 0.750108 2.828427 0
C 2.828427 -0.750108 2.530406 -1.469594 2 -2
C 1.469594 -2.530406 0.750108 -2.828427 0 -2.828427
C -0.750108 -2.828427 -1.469594 -2.530406 -2 -2
C -2.530406 -1.469594 -2.828427 -0.750108 -2.828427 0
C -2.828427 0.750108 -2.530406 1.469594 -2 2
C -1.469594 2.530406 -0.750108 2.828427 0 2.828427
z
" style="stroke: #d55e00; stroke-width: 0.6"/>
    </defs>
    <g clip-path="url(#p5e1b2c639b)">
     <use xlink:href="#mf16314eec7" x="418.858459" y="208.069092" style="fill: #d55e00; stroke: #d55e00; stroke-width: 0.6"/>
    </g>
   </g>
   <g id="PathCollection_4">
    <defs>
     <path id="meb3df4d77c" d="M 0 2.828427
C 0.750108 2.828427 1.469594 2.530406 2 2
C 2.530406 1.469594 2.828427 0.750108 2.828427 0
C 2.828427 -0.750108 2.530406 -1.469594 2 -2
C 1.469594 -2.530406 0.750108 -2.828427 0 -2.828427
C -0.750108 -2.828427 -1.469594 -2.530406 -2 -2
C -2.530406 -1.469594 -2.828427 -0.750108 -2.828427 0
C -2.828427 0.750108 -2.530406 1.469594 -2 2
C -1.469594 2.530406 -0.750108 2.828427 0 2.828427
z
" style="stroke: #e69f00; stroke-width: 0.6"/>
    </defs>
    <g clip-path="url(#p5e1b2c639b)">
     <use xlink:href="#meb3df4d77c" x="53.216822" y="22.121822" style="fill: #e69f00; stroke: #e69f00; stroke-width: 0.6"/>
    </g>
   </g>
   <g id="PathCollection_5">
    <defs>
     <path id="mcf904d1e5f" d="M 0 2.828427
C 0.750108 2.828427 1.469594 2.530406 2 2
C 2.530406 1.469594 2.828427 0.750108 2.828427 0
C 2.828427 -0.750108 2.530406 -1.469594 2 -2
C 1.469594 -2.530406 0.750108 -2.828427 0 -2.828427
C -0.750108 -2.828427 -1.469594 -2.530406 -2 -2
C -2.530406 -1.469594 -2.828427 -0.750108 -2.828427 0
C -2.828427 0.750108 -2.530406 1.469594 -2 2
C -1.469594 2.530406 -0.750108 2.828427 0 2.828427
z
" style="stroke: #009e73; stroke-width: 0.6"/>
    </defs>
    <g clip-path="url(#p5e1b2c639b)">
     <use xlink:href="#mcf904d1e5f" x="59.981638" y="27.243319" style="fill: #009e73; stroke: #009e73; stroke-width: 0.6"/>
    </g>
   </g>
   <g id="matplotlib.axis_1">
    <g id="xtick_1">
     <g id="line2d_1">
      <defs>
       <path id="m4947e07410" d="M 0 0
L 0 3
" style="stroke: #000000; stroke-width: 0.6"/>
      </defs>
      <g>
       <use xlink:href="#m4947e07410" x="66.344168" y="217.366455" style="stroke: #000000; stroke-width: 0.6"/>
      </g>
     </g>
     <g id="text_1">
      <text style="font-size: 7px; font-family: 'Arial', 'Helvetica', 'DejaVu Sans', sans-serif; text-anchor: middle" x="66.344168" y="228.962647" transform="rotate(-0 66.344168 228.962647)">0.05</text>
     </g>
    </g>
    <g id="xtick_2">
     <g id="line2d_2">
      <g>
       <use xlink:href="#m4947e07410" x="114.560319" y="217.366455" style="stroke: #000000; stroke-width: 0.6"/>
      </g>
     </g>
     <g id="text_2">
      <text style="font-size: 7px; font-family: 'Arial', 'Helvetica', 'DejaVu Sans', sans-serif; text-anchor: middle" x="114.560319" y="228.962647" transform="rotate(-0 114.560319 228.962647)">0.10</text>
     </g>
    </g>
    <g id="xtick_3">
     <g id="line2d_3">
      <g>
       <use xlink:href="#m4947e07410" x="162.776469" y="217.366455" style="stroke: #000000; stroke-width: 0.6"/>
      </g>
     </g>
     <g id="text_3">
      <text style="font-size: 7px; font-family: 'Arial', 'Helvetica', 'DejaVu Sans', sans-serif; text-anchor: middle" x="162.776469" y="228.962647" transform="rotate(-0 162.776469 228.962647)">0.15</text>
     </g>
    </g>
    <g id="xtick_4">
     <g id="line2d_4">
      <g>
       <use xlink:href="#m4947e07410" x="210.99262" y="217.366455" style="stroke: #000000; stroke-width: 0.6"/>
      </g>
     </g>
     <g id="text_4">
      <text style="font-size: 7px; font-family: 'Arial', 'Helvetica', 'DejaVu Sans', sans-serif; text-anchor: middle" x="210.99262" y="228.962647" transform="rotate(-0 210.99262 228.962647)">0.20</text>
     </g>
    </g>
    <g id="xtick_5">
     <g id="line2d_5">
      <g>
       <use xlink:href="#m4947e07410" x="259.20877" y="217.366455" style="stroke: #000000; stroke-width: 0.6"/>
      </g>
     </g>
     <g id="text_5">
      <text style="font-size: 7px; font-family: 'Arial', 'Helvetica', 'DejaVu Sans', sans-serif; text-anchor: middle" x="259.20877" y="228.962647" transform="rotate(-0 259.20877 228.962647)">0.25</text>
     </g>
    </g>
    <g id="xtick_6">
     <g id="line2d_6">
      <g>
       <use xlink:href="#m4947e07410" x="307.424921" y="217.366455" style="stroke: #000000; stroke-width: 0.6"/>
      </g>
     </g>
     <g id="text_6">
      <text style="font-size: 7px; font-family: 'Arial', 'Helvetica', 'DejaVu Sans', sans-serif; text-anchor: middle" x="307.424921" y="228.962647" transform="rotate(-0 307.424921 228.962647)">0.30</text>
     </g>
    </g>
    <g id="xtick_7">
     <g id="line2d_7">
      <g>
       <use xlink:href="#m4947e07410" x="355.641071" y="217.366455" style="stroke: #000000; stroke-width: 0.6"/>
      </g>
     </g>
     <g id="text_7">
      <text style="font-size: 7px; font-family: 'Arial', 'Helvetica', 'DejaVu Sans', sans-serif; text-anchor: middle" x="355.641071" y="228.962647" transform="rotate(-0 355.641071 228.962647)">0.35</text>
     </g>
    </g>
    <g id="xtick_8">
     <g id="line2d_8">
      <g>
       <use xlink:href="#m4947e07410" x="403.857222" y="217.366455" style="stroke: #000000; stroke-width: 0.6"/>
      </g>
     </g>
     <g id="text_8">
      <text style="font-size: 7px; font-family: 'Arial', 'Helvetica', 'DejaVu Sans', sans-serif; text-anchor: middle" x="403.857222" y="228.962647" transform="rotate(-0 403.857222 228.962647)">0.40</text>
     </g>
    </g>
    <g id="text_9">
     <text style="font-size: 8px; font-family: 'Arial', 'Helvetica', 'DejaVu Sans', sans-serif; text-anchor: middle" x="237.061218" y="240.26001" transform="rotate(-0 237.061218 240.26001)">Target absorption MAE (lower)</text>
    </g>
   </g>
   <g id="matplotlib.axis_2">
    <g id="ytick_1">
     <g id="line2d_9">
      <defs>
       <path id="m3753162699" d="M 0 0
L -3 0
" style="stroke: #000000; stroke-width: 0.6"/>
      </defs>
      <g>
       <use xlink:href="#m3753162699" x="34.630865" y="208.069092" style="stroke: #000000; stroke-width: 0.6"/>
      </g>
     </g>
     <g id="text_10">
      <text style="font-size: 7px; font-family: 'Arial', 'Helvetica', 'DejaVu Sans', sans-serif; text-anchor: end" x="28.130865" y="210.617188" transform="rotate(-0 28.130865 210.617188)">0.00</text>
     </g>
    </g>
    <g id="ytick_2">
     <g id="line2d_10">
      <g>
       <use xlink:href="#m3753162699" x="34.630865" y="183.830233" style="stroke: #000000; stroke-width: 0.6"/>
      </g>
     </g>
     <g id="text_11">
      <text style="font-size: 7px; font-family: 'Arial', 'Helvetica', 'DejaVu Sans', sans-serif; text-anchor: end" x="28.130865" y="186.378328" transform="rotate(-0 28.130865 186.378328)">0.05</text>
     </g>
    </g>
    <g id="ytick_3">
     <g id="line2d_11">
      <g>
       <use xlink:href="#m3753162699" x="34.630865" y="159.591374" style="stroke: #000000; stroke-width: 0.6"/>
      </g>
     </g>
     <g id="text_12">
      <text style="font-size: 7px; font-family: 'Arial', 'Helvetica', 'DejaVu Sans', sans-serif; text-anchor: end" x="28.130865" y="162.139469" transform="rotate(-0 28.130865 162.139469)">0.10</text>
     </g>
    </g>
    <g id="ytick_4">
     <g id="line2d_12">
      <g>
       <use xlink:href="#m3753162699" x="34.630865" y="135.352515" style="stroke: #000000; stroke-width: 0.6"/>
      </g>
     </g>
     <g id="text_13">
      <text style="font-size: 7px; font-family: 'Arial', 'Helvetica', 'DejaVu Sans', sans-serif; text-anchor: end" x="28.130865" y="137.90061" transform="rotate(-0 28.130865 137.90061)">0.15</text>
     </g>
    </g>
    <g id="ytick_5">
     <g id="line2d_13">
      <g>
       <use xlink:href="#m3753162699" x="34.630865" y="111.113656" style="stroke: #000000; stroke-width: 0.6"/>
      </g>
     </g>
     <g id="text_14">
      <text style="font-size: 7px; font-family: 'Arial', 'Helvetica', 'DejaVu Sans', sans-serif; text-anchor: end" x="28.130865" y="113.661751" transform="rotate(-0 28.130865 113.661751)">0.20</text>
     </g>
    </g>
    <g id="ytick_6">
     <g id="line2d_14">
      <g>
       <use xlink:href="#m3753162699" x="34.630865" y="86.874796" style="stroke: #000000; stroke-width: 0.6"/>
      </g>
     </g>
     <g id="text_15">
      <text style="font-size: 7px; font-family: 'Arial', 'Helvetica', 'DejaVu Sans', sans-serif; text-anchor: end" x="28.130865" y="89.422892" transform="rotate(-0 28.130865 89.422892)">0.25</text>
     </g>
    </g>
    <g id="ytick_7">
     <g id="line2d_15">
      <g>
       <use xlink:href="#m3753162699" x="34.630865" y="62.635937" style="stroke: #000000; stroke-width: 0.6"/>
      </g>
     </g>
     <g id="text_16">
      <text style="font-size: 7px; font-family: 'Arial', 'Helvetica', 'DejaVu Sans', sans-serif; text-anchor: end" x="28.130865" y="65.184033" transform="rotate(-0 28.130865 65.184033)">0.30</text>
     </g>
    </g>
    <g id="ytick_8">
     <g id="line2d_16">
      <g>
       <use xlink:href="#m3753162699" x="34.630865" y="38.397078" style="stroke: #000000; stroke-width: 0.6"/>
      </g>
     </g>
     <g id="text_17">
      <text style="font-size: 7px; font-family: 'Arial', 'Helvetica', 'DejaVu Sans', sans-serif; text-anchor: end" x="28.130865" y="40.945174" transform="rotate(-0 28.130865 40.945174)">0.35</text>
     </g>
    </g>
    <g id="ytick_9">
     <g id="line2d_17">
      <g>
       <use xlink:href="#m3753162699" x="34.630865" y="14.158219" style="stroke: #000000; stroke-width: 0.6"/>
      </g>
     </g>
     <g id="text_18">
      <text style="font-size: 7px; font-family: 'Arial', 'Helvetica', 'DejaVu Sans', sans-serif; text-anchor: end" x="28.130865" y="16.706315" transform="rotate(-0 28.130865 16.706315)">0.40</text>
     </g>
    </g>
    <g id="text_19">
     <text style="font-size: 8px; font-family: 'Arial', 'Helvetica', 'DejaVu Sans', sans-serif; text-anchor: middle" x="8.824459" y="115.095457" transform="rotate(-90 8.824459 115.095457)">Target-edge sparse contrast (higher)</text>
    </g>
   </g>
   <g id="patch_3">
    <path d="M 34.630865 217.366455
L 34.630865 12.824459
" style="fill: none; stroke: #000000; stroke-width: 0.7; stroke-linejoin: miter; stroke-linecap: square"/>
   </g>
   <g id="patch_4">
    <path d="M 34.630865 217.366455
L 439.491571 217.366455
" style="fill: none; stroke: #000000; stroke-width: 0.7; stroke-linejoin: miter; stroke-linecap: square"/>
   </g>
   <g id="text_20">
    <text style="font-size: 7px; font-family: 'Arial', 'Helvetica', 'DejaVu Sans', sans-serif; text-anchor: end" x="45.033624" y="38.496547" transform="rotate(-0 45.033624 38.496547)">CMC</text>
   </g>
   <g id="text_21">
    <text style="font-size: 7px; font-family: 'Arial', 'Helvetica', 'DejaVu Sans', sans-serif; text-anchor: end" x="413.088812" y="198.069092" transform="rotate(-0 413.088812 198.069092)">No mask</text>
   </g>
   <g id="text_22">
    <text style="font-size: 7px; font-family: 'Arial', 'Helvetica', 'DejaVu Sans', sans-serif; text-anchor: start" x="426.858459" y="216.069092" transform="rotate(-0 426.858459 216.069092)">No side</text>
   </g>
   <g id="text_23">
    <text style="font-size: 7px; font-family: 'Arial', 'Helvetica', 'DejaVu Sans', sans-serif; text-anchor: start" x="78.216822" y="22.121822" transform="rotate(-0 78.216822 22.121822)">One pass</text>
   </g>
   <g id="text_24">
    <text style="font-size: 7px; font-family: 'Arial', 'Helvetica', 'DejaVu Sans', sans-serif; text-anchor: start" x="79.981638" y="45.243319" transform="rotate(-0 79.981638 45.243319)">Fixed mask</text>
   </g>
   <g id="text_25">
    <text style="font-size: 8px; font-family: 'Arial', 'Helvetica', 'DejaVu Sans', sans-serif; text-anchor: start" x="34.630865" y="8.824459" transform="rotate(-0 34.630865 8.824459)">Ablation mechanism trade-off</text>
   </g>
  </g>
 </g>
 <defs>
  <clipPath id="p5e1b2c639b">
   <rect x="34.630865" y="12.824459" width="404.860706" height="204.541997"/>
  </clipPath>
 </defs>
</svg>
